<svg width="226" height="35" viewBox="0 0 226 35" fill="none" xmlns="http://www.w3.org/2000/svg">
<path fill-rule="evenodd" clip-rule="evenodd" d="M179.199 2.1H46.1992C37.694 2.1 30.7992 8.99481 30.7992 17.5C30.7992 26.0052 37.694 32.9 46.1992 32.9H179.199C187.704 32.9 194.599 26.0052 194.599 17.5C194.599 8.99481 187.704 2.1 179.199 2.1ZM46.1992 0C36.5342 0 28.6992 7.83502 28.6992 17.5C28.6992 27.165 36.5342 35 46.1992 35H179.199C188.864 35 196.699 27.165 196.699 17.5C196.699 7.83502 188.864 0 179.199 0H46.1992Z" fill="white"/>
<path d="M44.9656 9.31227C46.6168 9.31227 48.0597 9.65095 49.2944 10.3283C50.544 10.9899 51.5035 11.9508 52.1729 13.211C52.8572 14.4554 53.1993 15.9125 53.1993 17.5823C53.1993 19.2521 52.8572 20.7013 52.1729 21.93C51.5035 23.1587 50.544 24.1038 49.2944 24.7654C48.0597 25.4113 46.6168 25.7342 44.9656 25.7342H39.9004V9.31227H44.9656ZM44.9656 23.5367C46.7804 23.5367 48.1713 23.0169 49.1382 21.9772C50.1052 20.9376 50.5886 19.4726 50.5886 17.5823C50.5886 15.6763 50.1052 14.1877 49.1382 13.1165C48.1713 12.0453 46.7804 11.5097 44.9656 11.5097H42.4441V23.5367H44.9656Z" fill="white"/>
<path d="M62.7938 25.8996C61.3509 25.8996 60.0195 25.5452 58.7997 24.8363C57.5947 24.1117 56.6353 23.1114 55.9212 21.8355C55.2221 20.5438 54.8725 19.0945 54.8725 17.4878C54.8725 15.881 55.2221 14.4397 55.9212 13.1637C56.6353 11.8878 57.5947 10.8954 58.7997 10.1865C60.0195 9.46192 61.3509 9.09961 62.7938 9.09961C64.2516 9.09961 65.583 9.46192 66.788 10.1865C68.0078 10.8954 68.9672 11.8878 69.6664 13.1637C70.3656 14.4397 70.7151 15.881 70.7151 17.4878C70.7151 19.0945 70.3656 20.5438 69.6664 21.8355C68.9672 23.1114 68.0078 24.1117 66.788 24.8363C65.583 25.5452 64.2516 25.8996 62.7938 25.8996ZM62.7938 23.5604C63.8202 23.5604 64.7351 23.3162 65.5384 22.8279C66.3417 22.3238 66.9665 21.6149 67.4127 20.7013C67.8739 19.7719 68.1045 18.7007 68.1045 17.4878C68.1045 16.2749 67.8739 15.2116 67.4127 14.2979C66.9665 13.3843 66.3417 12.6833 65.5384 12.195C64.7351 11.7066 63.8202 11.4625 62.7938 11.4625C61.7674 11.4625 60.8525 11.7066 60.0492 12.195C59.2459 12.6833 58.6137 13.3843 58.1526 14.2979C57.7063 15.2116 57.4832 16.2749 57.4832 17.4878C57.4832 18.7007 57.7063 19.7719 58.1526 20.7013C58.6137 21.6149 59.2459 22.3238 60.0492 22.8279C60.8525 23.3162 61.7674 23.5604 62.7938 23.5604Z" fill="white"/>
<path d="M84.7098 9.31227L79.5777 19.7798V25.7342H77.0339V19.7798L71.8795 9.31227H74.7133L78.3058 17.3697L81.8983 9.31227H84.7098Z" fill="white"/>
<path d="M93.8019 25.8996C92.3589 25.8996 91.0276 25.5452 89.8078 24.8363C88.6028 24.1117 87.6433 23.1114 86.9293 21.8355C86.2301 20.5438 85.8806 19.0945 85.8806 17.4878C85.8806 15.881 86.2301 14.4397 86.9293 13.1637C87.6433 11.8878 88.6028 10.8954 89.8078 10.1865C91.0276 9.46192 92.3589 9.09961 93.8019 9.09961C95.2597 9.09961 96.5911 9.46192 97.796 10.1865C99.0158 10.8954 99.9753 11.8878 100.674 13.1637C101.374 14.4397 101.723 15.881 101.723 17.4878C101.723 19.0945 101.374 20.5438 100.674 21.8355C99.9753 23.1114 99.0158 24.1117 97.796 24.8363C96.5911 25.5452 95.2597 25.8996 93.8019 25.8996ZM93.8019 23.5604C94.8283 23.5604 95.7432 23.3162 96.5465 22.8279C97.3498 22.3238 97.9745 21.6149 98.4208 20.7013C98.882 19.7719 99.1125 18.7007 99.1125 17.4878C99.1125 16.2749 98.882 15.2116 98.4208 14.2979C97.9745 13.3843 97.3498 12.6833 96.5465 12.195C95.7432 11.7066 94.8283 11.4625 93.8019 11.4625C92.7755 11.4625 91.8606 11.7066 91.0573 12.195C90.254 12.6833 89.6218 13.3843 89.1607 14.2979C88.7144 15.2116 88.4913 16.2749 88.4913 17.4878C88.4913 18.7007 88.7144 19.7719 89.1607 20.7013C89.6218 21.6149 90.254 22.3238 91.0573 22.8279C91.8606 23.3162 92.7755 23.5604 93.8019 23.5604Z" fill="white"/>
<path d="M106.748 9.31227V19.7798C106.748 21.0242 107.053 21.9615 107.663 22.5916C108.287 23.2217 109.15 23.5367 110.251 23.5367C111.367 23.5367 112.23 23.2217 112.839 22.5916C113.464 21.9615 113.777 21.0242 113.777 19.7798V9.31227H116.32V19.7325C116.32 21.0715 116.045 22.2057 115.495 23.1351C114.944 24.0644 114.208 24.7576 113.286 25.2144C112.363 25.6712 111.344 25.8996 110.229 25.8996C109.113 25.8996 108.094 25.6712 107.172 25.2144C106.264 24.7576 105.543 24.0644 105.007 23.1351C104.472 22.2057 104.204 21.0715 104.204 19.7325V9.31227H106.748Z" fill="white"/>
<path d="M124.742 25.8996C123.701 25.8996 122.764 25.7106 121.931 25.3325C121.098 24.9387 120.443 24.3874 119.967 23.6785C119.491 22.9697 119.253 22.1426 119.253 21.1975H121.975C122.035 21.9064 122.295 22.4892 122.756 22.946C123.232 23.4028 123.894 23.6313 124.742 23.6313C125.62 23.6313 126.304 23.4107 126.795 22.9697C127.286 22.5128 127.531 21.93 127.531 21.2211C127.531 20.6698 127.375 20.2208 127.063 19.8743C126.765 19.5277 126.386 19.2599 125.925 19.0709C125.479 18.8819 124.854 18.6771 124.05 18.4566C123.039 18.173 122.213 17.8895 121.574 17.6059C120.949 17.3066 120.413 16.8498 119.967 16.2355C119.521 15.6211 119.298 14.802 119.298 13.7781C119.298 12.8329 119.521 12.0059 119.967 11.2971C120.413 10.5882 121.038 10.0448 121.841 9.6667C122.645 9.28864 123.574 9.09961 124.631 9.09961C126.133 9.09961 127.36 9.5013 128.312 10.3047C129.279 11.0923 129.815 12.1792 129.919 13.5654H127.107C127.063 12.9668 126.795 12.4549 126.304 12.0296C125.813 11.6043 125.166 11.3916 124.363 11.3916C123.634 11.3916 123.039 11.5885 122.578 11.9823C122.117 12.3761 121.886 12.9432 121.886 13.6836C121.886 14.1877 122.027 14.6051 122.31 14.9359C122.607 15.2509 122.979 15.503 123.426 15.692C123.872 15.881 124.482 16.0858 125.255 16.3064C126.282 16.6057 127.115 16.905 127.755 17.2043C128.409 17.5035 128.959 17.9682 129.406 18.5983C129.867 19.2127 130.097 20.0397 130.097 21.0794C130.097 21.9142 129.882 22.7019 129.45 23.4422C129.034 24.1826 128.416 24.7812 127.598 25.238C126.795 25.6791 125.843 25.8996 124.742 25.8996Z" fill="white"/>
<path d="M143.943 14.2034C143.943 15.0383 143.757 15.8259 143.386 16.5663C143.014 17.3066 142.419 17.9131 141.6 18.3857C140.782 18.8425 139.734 19.0709 138.454 19.0709H135.643V25.7342H133.099V9.31227H138.454C139.644 9.31227 140.648 9.5328 141.467 9.97387C142.3 10.3992 142.917 10.982 143.319 11.7224C143.735 12.4628 143.943 13.2898 143.943 14.2034ZM138.454 16.8734C139.421 16.8734 140.143 16.645 140.619 16.1882C141.095 15.7156 141.333 15.054 141.333 14.2034C141.333 12.4076 140.373 11.5097 138.454 11.5097H135.643V16.8734H138.454Z" fill="white"/>
<path d="M148.913 11.4861V16.3064H154.268V18.5038H148.913V23.5367H154.938V25.7342H146.369V9.28864H154.938V11.4861H148.913Z" fill="white"/>
<path d="M167.42 22.3789H160.927L159.812 25.7342H157.156L162.712 9.28864H165.658L171.214 25.7342H168.536L167.42 22.3789ZM166.706 20.1815L164.185 12.5494L161.641 20.1815H166.706Z" fill="white"/>
<path d="M182.176 25.7342L176.173 18.3857V25.7342H173.63V9.31227H176.173V16.8026L182.198 9.31227H185.389L178.65 17.5351L185.5 25.7342H182.176Z" fill="white"/>
<path d="M196.699 17.5L225.399 0V35L196.699 17.5Z" fill="white"/>
<path fill-rule="evenodd" clip-rule="evenodd" d="M196.699 17.5L225.399 0V35L196.699 17.5Z" fill="white"/>
<path d="M28.6992 17.5L-0.00078392 0V35L28.6992 17.5Z" fill="white"/>
<path fill-rule="evenodd" clip-rule="evenodd" d="M28.6992 17.5L-0.00078392 0V35L28.6992 17.5Z" fill="white"/>
</svg>
