<svg width="81" height="20" viewBox="0 0 81 20" fill="none" xmlns="http://www.w3.org/2000/svg">
<rect x="61" y="0.000976562" width="20" height="20" rx="5" fill="#4ACDFF"/>
<rect x="56" y="0.000976562" width="20" height="20" rx="5" fill="#FF3E91"/>
<rect x="51" y="0.000976562" width="20" height="20" rx="5" fill="#FFD214"/>
<rect x="25" y="0.000976562" width="20" height="20" rx="5" fill="black"/>
<circle cx="10" cy="10.001" r="10" fill="black"/>
<path d="M3.95684 14.001V6.80098H6.80184C6.87184 6.80098 6.95517 6.80431 7.05184 6.81098C7.1485 6.81431 7.24184 6.82431 7.33184 6.84098C7.72184 6.90098 8.0485 7.03431 8.31184 7.24098C8.5785 7.44764 8.7785 7.70931 8.91184 8.02598C9.04517 8.33931 9.11184 8.68764 9.11184 9.07098C9.11184 9.62764 8.96684 10.111 8.67684 10.521C8.38684 10.9276 7.96184 11.1826 7.40184 11.286L7.06184 11.341H4.84684V14.001H3.95684ZM8.24184 14.001L6.82184 11.071L7.70184 10.801L9.26184 14.001H8.24184ZM4.84684 10.496H6.77184C6.83517 10.496 6.90684 10.4926 6.98684 10.486C7.07017 10.4793 7.1485 10.4676 7.22184 10.451C7.45184 10.3976 7.6385 10.301 7.78184 10.161C7.9285 10.0176 8.03517 9.85098 8.10184 9.66098C8.1685 9.46764 8.20184 9.27098 8.20184 9.07098C8.20184 8.87098 8.1685 8.67598 8.10184 8.48598C8.03517 8.29264 7.9285 8.12431 7.78184 7.98098C7.6385 7.83764 7.45184 7.74098 7.22184 7.69098C7.1485 7.67098 7.07017 7.65931 6.98684 7.65598C6.90684 7.64931 6.83517 7.64598 6.77184 7.64598H4.84684V10.496ZM13.2031 14.151C12.6464 14.151 12.1548 14.036 11.7281 13.806C11.3014 13.576 10.9664 13.2543 10.7231 12.841C10.4831 12.4243 10.3631 11.936 10.3631 11.376V6.80598L11.2631 6.80098V11.301C11.2631 11.641 11.3198 11.9376 11.4331 12.191C11.5498 12.441 11.7031 12.6493 11.8931 12.816C12.0831 12.9826 12.2914 13.1076 12.5181 13.191C12.7481 13.271 12.9764 13.311 13.2031 13.311C13.4331 13.311 13.6631 13.2693 13.8931 13.186C14.1231 13.1026 14.3314 12.9793 14.5181 12.816C14.7081 12.6493 14.8598 12.4393 14.9731 12.186C15.0864 11.9326 15.1431 11.6376 15.1431 11.301V6.80098H16.0431V11.376C16.0431 11.9326 15.9214 12.4193 15.6781 12.836C15.4381 13.2526 15.1048 13.576 14.6781 13.806C14.2514 14.036 13.7598 14.151 13.2031 14.151Z" fill="white"/>
<path d="M29.8475 14.001V6.80098H34.3975V7.64598H30.7375V9.90098H33.7975V10.746H30.7375V13.156H34.3975V14.001H29.8475ZM35.5994 14.001V6.80098H36.4994L40.2544 12.426V6.80098H41.1544V14.001H40.2544L36.4994 8.37098V14.001H35.5994Z" fill="white"/>
</svg>
