<svg width="2932" height="117" viewBox="0 0 2932 117" fill="none" xmlns="http://www.w3.org/2000/svg">
<circle r="57.5" transform="matrix(-1 0 0 1 2035.5 58.5)" fill="#FF3E91"/>
<path fill-rule="evenodd" clip-rule="evenodd" d="M2696 1H2874.29C2906.05 1 2931.79 26.7436 2931.79 58.5C2931.79 90.2564 2906.05 116 2874.29 116H2696V1Z" fill="#3423E9"/>
<path d="M2649 58.5C2643.08 24.1646 2626.41 -23.9049 2607.05 58.5C2587.69 140.905 2569.52 92.8354 2562.85 58.5C2556.93 24.1646 2540.07 -23.9048 2519.93 58.5C2499.8 140.905 2484.22 92.8353 2478.95 58.5M2310.53 59.1319C2303.98 24.8731 2287.69 -23.9049 2268.3 58.5C2248.91 140.905 2230.7 92.8354 2224.03 58.5C2218.1 24.1646 2201.21 -23.9049 2181.04 58.5C2160.88 140.905 2145.28 92.8354 2140 58.5M2479.08 59.2845C2473.69 24.3757 2456.44 -23.9049 2437.27 58.5C2418.1 140.905 2400.1 92.8354 2393.5 58.5C2387.64 24.1646 2370.86 -23.9049 2351 58.5C2331.14 140.905 2315.64 92.8354 2310.42 58.5" stroke="#4ACDFF" stroke-width="24"/>
<rect width="198.493" height="115" rx="57.5" transform="matrix(-1 0 0 1 198.493 1)" fill="black"/>
<rect width="22.0548" height="30.7192" rx="11.0274" transform="matrix(-1 0 0 1 159.11 12.8164)" fill="white"/>
<rect width="21.2671" height="30.7192" rx="10.6336" transform="matrix(-1 0 0 1 134.692 12.8164)" fill="white"/>
<rect width="22.8425" height="30.7192" rx="11.4212" transform="matrix(-1 0 0 1 111.062 12.8164)" fill="white"/>
<rect width="22.0548" height="31.5068" rx="11.0274" transform="matrix(-1 0 0 1 85.856 12.0273)" fill="white"/>
<ellipse rx="66.1644" ry="27.5685" transform="matrix(-1 0 0 1 99.2465 84.4923)" fill="#FF7CB4"/>
<rect width="22.0548" height="30.7192" rx="11.0274" transform="matrix(-1 0 0 1 135.479 82.9199)" fill="white"/>
<rect width="23.7023" height="32.4809" rx="11.8511" transform="matrix(-1 0 0 1 111.489 82.6406)" fill="white"/>
<rect width="22.0548" height="31.5068" rx="11.0274" transform="matrix(-1 0 0 1 85.856 82.9199)" fill="white"/>
<rect width="22.0548" height="30.7192" rx="11.0274" transform="matrix(-1 0 0 1 61.4385 12.8164)" fill="white"/>
<rect x="-9" y="9" width="180.493" height="97" rx="48.5" transform="matrix(-1 0 0 1 180.493 1)" stroke="#FF3E91" stroke-width="18"/>
<rect width="16.5011" height="141.402" transform="matrix(0 -1 -1 0 374.401 66.75)" fill="#D47B2D"/>
<ellipse rx="51.6612" ry="51.5342" transform="matrix(0 -1 -1 0 416.544 58.501)" fill="#FFD214"/>
<rect width="115" height="17.5166" transform="matrix(0 -1 -1 0 425.173 116)" fill="#FFD214"/>
<path fill-rule="evenodd" clip-rule="evenodd" d="M642.999 1H560.578C528.822 1 503.078 26.7436 503.078 58.5C503.078 90.2564 528.822 116 560.578 116H642.999V1Z" fill="#3423E9"/>
<path d="M677.999 115.636L708.015 68.7402L725.32 86.4363L677.999 115.636Z" fill="#FF3E91"/>
<mask id="mask0_702_368" style="mask-type:alpha" maskUnits="userSpaceOnUse" x="678" y="1" width="277" height="115">
<rect x="678" y="1" width="276.473" height="115" rx="57.5" fill="#F9616B"/>
</mask>
<g mask="url(#mask0_702_368)">
<mask id="mask1_702_368" style="mask-type:alpha" maskUnits="userSpaceOnUse" x="678" y="-31" width="277" height="179">
<ellipse cx="816.236" cy="58.501" rx="138.236" ry="89.0069" fill="#C4C4C4"/>
</mask>
<g mask="url(#mask1_702_368)">
<path d="M816.005 59.1094L747.445 -47.5214L698.913 -16.3037L650.382 14.9139L816.005 59.1094Z" fill="#FF3E91"/>
<path d="M816.005 59.1094L981.526 14.9414L933.067 -16.3232L884.609 -47.5878L816.005 59.1094Z" fill="#FF3E91"/>
<path d="M816.005 59.1094L884.566 165.74L933.097 134.522L981.629 103.305L816.005 59.1094Z" fill="#FF3E91"/>
<path d="M816.005 59.1094L650.485 103.277L698.943 134.542L747.402 165.807L816.005 59.1094Z" fill="#FF3E91"/>
<path d="M816.004 59.1112L884.565 -47.5196L815.983 -47.5528L747.401 -47.586L816.004 59.1112Z" fill="#FFD214"/>
<path d="M816.004 59.1112L981.525 103.279L981.576 59.0974L981.628 14.9158L816.004 59.1112Z" fill="#FFD214"/>
<path d="M816.004 59.1112L747.443 165.742L816.026 165.775L884.608 165.808L816.004 59.1112Z" fill="#FFD214"/>
<path d="M816.004 59.1112L650.484 14.9433L650.432 59.125L650.381 103.307L816.004 59.1112Z" fill="#FFD214"/>
</g>
</g>
<mask id="mask2_702_368" style="mask-type:alpha" maskUnits="userSpaceOnUse" x="1828" y="1" width="115" height="115">
<circle r="57.5" transform="matrix(-1 0 0 1 1885.5 58.5)" fill="#C4C4C4"/>
</mask>
<g mask="url(#mask2_702_368)">
<path d="M1886.1 59.0979L1910.14 1.04587L1927.16 18.0414L1944.19 35.037L1886.1 59.0979Z" fill="#3423E9"/>
<path d="M1886.1 59.0979L1828.05 35.0519L1845.04 18.0308L1862.04 1.00971L1886.1 59.0979Z" fill="#3423E9"/>
<path d="M1886.1 59.0979L1862.05 117.15L1845.03 100.154L1828.01 83.1588L1886.1 59.0979Z" fill="#3423E9"/>
<path d="M1886.1 59.0979L1944.15 83.1438L1927.15 100.165L1910.16 117.186L1886.1 59.0979Z" fill="#3423E9"/>
<path d="M1886.1 59.1038L1862.05 1.05179L1886.11 1.03371L1910.16 1.01563L1886.1 59.1038Z" fill="#FF3E91"/>
<path d="M1886.1 59.1038L1828.05 83.1497L1828.03 59.0963L1828.01 35.0429L1886.1 59.1038Z" fill="#FF3E91"/>
<path d="M1886.1 59.1038L1910.15 117.156L1886.09 117.174L1862.04 117.192L1886.1 59.1038Z" fill="#FF3E91"/>
<path d="M1886.1 59.1038L1944.15 35.0579L1944.17 59.1113L1944.19 83.1647L1886.1 59.1038Z" fill="#FF3E91"/>
</g>
<circle r="57.5" transform="matrix(-1 0 0 1 1735.5 58.5)" fill="#FFD214"/>
<path fill-rule="evenodd" clip-rule="evenodd" d="M1643 1H1434.4C1402.64 1 1376.9 26.7436 1376.9 58.5C1376.9 90.2564 1402.64 116 1434.4 116H1643V1Z" fill="#FF3E91"/>
<path d="M989 116.001L1019.02 69.1055L1036.32 86.8015L989 116.001Z" fill="#4ACDFF"/>
<rect width="352.901" height="115" rx="57.5" transform="matrix(-1 0 0 1 1341.9 1)" fill="#4ACDFF"/>
<mask id="mask3_702_368" style="mask-type:alpha" maskUnits="userSpaceOnUse" x="989" y="1" width="353" height="115">
<rect x="989" y="1" width="352.901" height="115" rx="57.5" fill="#F9616B"/>
</mask>
<g mask="url(#mask3_702_368)">
<path d="M1371 58.5C1365.24 24.9193 1348.99 -22.0938 1330.12 58.5C1311.26 139.094 1293.55 92.0807 1287.05 58.5C1281.28 24.9193 1264.85 -22.0937 1245.23 58.5C1225.61 139.094 1210.43 92.0807 1205.3 58.5M1041.07 59.1181C1034.69 25.6122 1018.92 -22.0938 1000.02 58.5C981.129 139.094 963.388 92.0808 956.88 58.5C951.106 24.9192 934.646 -22.0938 914.995 58.5C895.344 139.094 880.144 92.0807 875 58.5M1205.3 59.3241C1198.46 25.2947 1183.36 -22.0938 1164.68 58.5C1146 139.094 1128.46 92.0808 1122.02 58.5C1116.32 24.9192 1100.04 -22.0938 1080.61 58.5C1061.19 139.094 1046.16 92.0807 1041.07 58.5" stroke="#FF3E91" stroke-width="27"/>
</g>
</svg>
