<svg width="34" height="27" viewBox="0 0 34 27" fill="none" xmlns="http://www.w3.org/2000/svg">
<path d="M1.28527 12.8281C0.683365 11.5039 1.65143 10.0005 3.10601 10.0005H30.894C32.3486 10.0005 33.3166 11.5039 32.7147 12.8281L26.8056 25.8281C26.4811 26.5421 25.7692 27.0005 24.9849 27.0005H9.0151C8.23081 27.0005 7.51891 26.5421 7.19437 25.8281L1.28527 12.8281Z" fill="white"/>
<path d="M13.9261 3.76025C13.0489 3.76025 12.3378 3.04918 12.3378 2.17202C12.3378 1.29486 13.0489 0.583783 13.9261 0.583783L20.1971 0.583783C21.0743 0.583783 21.7854 1.29486 21.7854 2.17202C21.7854 3.04918 21.0743 3.76025 20.1971 3.76025L13.9261 3.76025Z" fill="white"/>
<rect width="3.16892" height="18.1285" rx="1.58446" transform="matrix(0.865337 0.501191 -0.49881 0.866711 13.3359 0.00146484)" fill="white"/>
<rect width="3.16892" height="18.1299" rx="1.58446" transform="matrix(0.865337 -0.501191 0.49881 0.866711 18.205 1.58838)" fill="white"/>
</svg>
